<?xml version="1.0" standalone="no"?>
<!DOCTYPE svg PUBLIC "-//W3C//DTD SVG 20010904//EN"
 "http://www.w3.org/TR/2001/REC-SVG-20010904/DTD/svg10.dtd">
<svg version="1.0" xmlns="http://www.w3.org/2000/svg"
 width="646.000000pt" height="272.000000pt" viewBox="0 0 646.000000 272.000000"
 preserveAspectRatio="xMidYMid meet">

<g transform="translate(0.000000,272.000000) scale(0.100000,-0.100000)"
fill="#000000" stroke="none">
<path d="M3153 2639 c-644 -63 -1009 -719 -687 -1236 304 -487 1042 -560 1454
-143 310 312 310 798 0 1110 -143 145 -352 247 -543 265 -127 12 -144 12 -224
4z m285 -45 c180 -37 318 -111 448 -239 102 -100 157 -187 201 -311 25 -73 27
-91 27 -229 0 -138 -2 -156 -27 -229 -44 -124 -99 -211 -201 -311 -175 -173
-380 -255 -636 -255 -256 0 -461 82 -636 255 -102 100 -157 187 -201 311 -25
73 -27 91 -27 229 0 138 2 156 27 229 44 124 99 211 201 311 128 126 266 201
441 238 95 21 286 21 383 1z"/>
<path d="M3023 2315 c-18 -20 -16 -38 7 -55 17 -13 20 -26 20 -102 l0 -88
-217 0 -218 0 0 -310 0 -310 640 0 640 0 0 310 0 310 -217 0 -218 0 0 90 c0
53 4 90 10 90 6 0 10 18 10 40 l0 40 -222 0 c-180 -1 -225 -4 -235 -15z m407
-415 l0 -350 -25 0 -25 0 0 105 c0 98 1 105 20 105 16 0 20 7 20 35 l0 35
-165 0 -165 0 0 -35 c0 -28 4 -35 20 -35 19 0 20 -7 20 -105 l0 -105 -25 0
-25 0 0 350 0 350 175 0 175 0 0 -350z m-380 -125 l0 -225 -184 0 c-101 0
-191 3 -200 6 -14 5 -16 35 -16 225 l0 219 200 0 200 0 0 -225z m810 6 c0
-190 -2 -220 -16 -225 -9 -3 -99 -6 -200 -6 l-184 0 0 225 0 225 200 0 200 0
0 -219z"/>
<path d="M3230 2180 c0 -26 -5 -31 -30 -36 -26 -6 -30 -11 -30 -40 0 -31 3
-34 30 -34 28 0 30 -3 30 -35 0 -33 2 -35 35 -35 33 0 35 2 35 35 0 28 4 35
20 35 16 0 20 7 20 35 0 28 -4 35 -20 35 -16 0 -20 7 -20 35 0 33 -2 35 -35
35 -32 0 -35 -2 -35 -30z"/>
<path d="M3110 1900 c0 -38 2 -40 30 -40 28 0 30 2 30 40 0 38 -2 40 -30 40
-28 0 -30 -2 -30 -40z"/>
<path d="M3230 1900 c0 -39 1 -40 35 -40 34 0 35 1 35 40 0 39 -1 40 -35 40
-34 0 -35 -1 -35 -40z"/>
<path d="M3340 1900 c0 -38 2 -40 30 -40 28 0 30 2 30 40 0 38 -2 40 -30 40
-28 0 -30 -2 -30 -40z"/>
<path d="M2700 1900 c0 -38 2 -40 30 -40 28 0 30 2 30 40 0 38 -2 40 -30 40
-28 0 -30 -2 -30 -40z"/>
<path d="M2810 1900 c0 -38 2 -40 30 -40 28 0 30 2 30 40 0 38 -2 40 -30 40
-28 0 -30 -2 -30 -40z"/>
<path d="M2940 1900 c0 -38 2 -40 30 -40 28 0 30 2 30 40 0 38 -2 40 -30 40
-28 0 -30 -2 -30 -40z"/>
<path d="M2700 1775 c0 -43 1 -45 30 -45 29 0 30 2 30 45 0 43 -1 45 -30 45
-29 0 -30 -2 -30 -45z"/>
<path d="M2810 1775 c0 -43 1 -45 30 -45 29 0 30 2 30 45 0 43 -1 45 -30 45
-29 0 -30 -2 -30 -45z"/>
<path d="M2940 1775 c0 -43 1 -45 30 -45 29 0 30 2 30 45 0 43 -1 45 -30 45
-29 0 -30 -2 -30 -45z"/>
<path d="M2700 1625 c0 -43 1 -45 30 -45 29 0 30 2 30 45 0 43 -1 45 -30 45
-29 0 -30 -2 -30 -45z"/>
<path d="M2810 1625 c0 -43 1 -45 30 -45 29 0 30 2 30 45 0 43 -1 45 -30 45
-29 0 -30 -2 -30 -45z"/>
<path d="M2940 1625 c0 -43 1 -45 30 -45 29 0 30 2 30 45 0 43 -1 45 -30 45
-29 0 -30 -2 -30 -45z"/>
<path d="M3510 1900 c0 -38 2 -40 30 -40 28 0 30 2 30 40 0 38 -2 40 -30 40
-28 0 -30 -2 -30 -40z"/>
<path d="M3640 1900 c0 -36 3 -40 25 -40 23 0 25 4 25 40 0 36 -2 40 -25 40
-22 0 -25 -4 -25 -40z"/>
<path d="M3750 1900 c0 -38 2 -40 30 -40 28 0 30 2 30 40 0 38 -2 40 -30 40
-28 0 -30 -2 -30 -40z"/>
<path d="M3510 1775 c0 -43 1 -45 30 -45 29 0 30 2 30 45 0 43 -1 45 -30 45
-29 0 -30 -2 -30 -45z"/>
<path d="M3640 1775 c0 -41 2 -45 25 -45 23 0 25 4 25 45 0 41 -2 45 -25 45
-23 0 -25 -4 -25 -45z"/>
<path d="M3750 1775 c0 -43 1 -45 30 -45 29 0 30 2 30 45 0 43 -1 45 -30 45
-29 0 -30 -2 -30 -45z"/>
<path d="M3510 1625 c0 -43 1 -45 30 -45 29 0 30 2 30 45 0 43 -1 45 -30 45
-29 0 -30 -2 -30 -45z"/>
<path d="M3640 1625 c0 -41 2 -45 25 -45 23 0 25 4 25 45 0 41 -2 45 -25 45
-23 0 -25 -4 -25 -45z"/>
<path d="M3750 1625 c0 -43 1 -45 30 -45 29 0 30 2 30 45 0 43 -1 45 -30 45
-29 0 -30 -2 -30 -45z"/>
<path d="M3531 751 c-8 -5 -11 -80 -9 -282 3 -266 4 -274 23 -274 19 0 20 8
23 128 l3 127 174 0 175 0 0 -125 c0 -107 2 -127 16 -132 39 -15 44 19 44 278
0 136 -3 254 -6 263 -3 9 -17 16 -30 16 l-24 0 0 -125 0 -125 -175 0 -175 0 0
124 c0 125 -7 147 -39 127z"/>
<path d="M96 734 c-3 -9 -6 -130 -6 -269 0 -252 0 -254 22 -266 35 -19 268 -5
315 18 75 37 99 108 64 187 -15 34 -29 51 -51 59 -35 13 -38 23 -9 32 51 17
76 123 43 186 -27 54 -79 69 -235 69 -116 0 -138 -2 -143 -16z m313 -58 c27
-25 36 -77 19 -113 -22 -46 -69 -63 -180 -63 l-98 0 0 101 0 101 119 -4 c100
-2 122 -6 140 -22z m17 -259 c17 -20 24 -40 24 -70 0 -85 -42 -107 -202 -107
l-98 0 0 106 0 106 126 -4 c124 -3 126 -3 150 -31z"/>
<path d="M1517 744 c-4 -4 -7 -128 -7 -276 0 -231 2 -269 15 -274 31 -12 44
15 47 101 l3 83 110 -94 c61 -52 113 -94 116 -94 4 0 13 7 20 16 12 15 6 23
-51 73 -35 31 -79 70 -97 86 l-34 30 86 74 c83 72 100 102 63 109 -10 2 -57
-34 -115 -87 l-98 -90 -5 172 c-5 164 -6 172 -25 175 -12 2 -24 0 -28 -4z"/>
<path d="M1860 732 c0 -10 45 -75 100 -144 l100 -126 0 -132 c0 -107 3 -132
15 -136 8 -4 22 -1 30 6 12 10 15 39 15 140 l0 128 100 127 c56 70 99 133 97
139 -2 6 -12 12 -23 13 -14 2 -45 -31 -113 -118 -51 -66 -97 -117 -101 -112
-4 4 -46 59 -94 121 -57 73 -95 112 -107 112 -12 0 -19 -7 -19 -18z"/>
<path d="M5412 741 c-8 -4 -12 -19 -10 -32 2 -19 9 -24 33 -24 24 0 31 5 33
24 4 23 -11 41 -33 41 -5 0 -16 -4 -23 -9z"/>
<path d="M6290 475 c0 -247 2 -276 16 -282 39 -15 44 19 44 278 0 136 -3 254
-6 263 -3 9 -17 16 -30 16 l-24 0 0 -275z"/>
<path d="M5622 688 c-6 -6 -12 -34 -12 -60 l0 -48 -35 0 c-23 0 -38 -6 -42
-16 -7 -20 13 -34 50 -34 l27 0 1 -112 c0 -126 12 -172 50 -200 35 -27 122
-30 127 -6 3 14 -6 19 -38 24 -69 11 -80 35 -80 175 l0 119 48 0 c60 0 81 12
63 34 -9 11 -30 16 -62 16 l-48 0 -3 57 c-3 60 -19 78 -46 51z"/>
<path d="M732 578 c-129 -28 -177 -223 -82 -332 63 -71 192 -74 257 -4 90 96
59 293 -51 327 -56 17 -80 19 -124 9z m114 -57 c41 -25 57 -75 52 -158 -4 -59
-8 -69 -36 -94 -26 -23 -42 -29 -80 -29 -28 0 -57 7 -71 16 -72 51 -67 228 8
269 37 20 91 18 127 -4z"/>
<path d="M1181 580 c-96 -23 -151 -123 -130 -236 13 -66 43 -109 95 -134 90
-44 199 -8 237 79 23 51 26 137 7 186 -30 80 -122 125 -209 105z m125 -71 c58
-54 56 -190 -3 -245 -37 -34 -119 -34 -156 0 -70 65 -56 221 24 264 35 19 105
9 135 -19z"/>
<path d="M2447 580 c-167 -31 -188 -309 -28 -376 61 -25 142 -13 190 30 93 83
74 280 -31 328 -45 21 -86 26 -131 18z m120 -74 c33 -30 37 -39 41 -93 8 -115
-31 -173 -119 -173 -40 0 -55 5 -81 29 -30 26 -33 35 -36 100 -5 85 9 126 52
152 49 30 100 25 143 -15z"/>
<path d="M3385 580 c-43 -9 -73 -27 -87 -53 -12 -21 -13 -21 -18 13 -5 37 -35
54 -51 28 -5 -7 -9 -90 -9 -184 0 -140 3 -174 15 -184 8 -7 22 -10 30 -6 12 4
15 27 15 123 0 165 21 202 123 218 27 4 37 11 37 24 0 23 -16 30 -55 21z"/>
<path d="M4222 578 c-162 -35 -179 -308 -23 -374 70 -29 157 -10 204 45 36 43
50 94 45 161 -9 125 -103 194 -226 168z m107 -53 c38 -19 61 -71 61 -140 0
-96 -40 -145 -120 -145 -80 0 -120 49 -120 145 0 98 42 154 118 155 18 0 46
-7 61 -15z"/>
<path d="M4655 581 c-71 -18 -105 -54 -105 -112 0 -51 38 -82 129 -104 38 -9
77 -25 86 -35 22 -24 13 -65 -16 -81 -34 -18 -113 -12 -159 11 -28 14 -46 18
-52 12 -18 -18 10 -49 59 -66 121 -41 233 3 233 91 0 63 -25 82 -152 118 -80
21 -98 56 -53 100 30 31 85 33 140 5 48 -24 71 -20 55 10 -21 39 -106 66 -165
51z"/>
<path d="M5092 580 c-19 -4 -46 -20 -62 -35 l-28 -27 -4 28 c-2 23 -8 29 -28
29 l-25 0 0 -260 0 -260 25 0 c25 0 25 1 30 105 4 76 8 100 15 89 18 -29 78
-59 119 -59 54 0 119 40 142 87 22 48 30 140 15 186 -30 89 -111 137 -199 117z
m105 -74 c34 -31 37 -38 41 -100 7 -112 -31 -166 -117 -166 -81 0 -121 50
-121 151 0 95 44 148 123 149 29 0 46 -8 74 -34z"/>
<path d="M5947 576 c-51 -14 -87 -40 -87 -64 0 -16 20 -13 85 12 50 19 104 20
128 1 20 -14 42 -89 32 -106 -4 -5 -36 -9 -72 -9 -121 0 -183 -36 -183 -105 0
-103 146 -151 225 -75 l34 33 3 -34 c2 -26 8 -34 23 -34 19 0 20 8 23 142 3
155 -7 199 -50 226 -34 22 -106 28 -161 13z m158 -233 c-9 -50 -28 -79 -66
-98 -56 -30 -129 8 -129 66 0 46 44 67 144 68 l58 1 -7 -37z"/>
<path d="M2777 574 c-11 -12 -8 -241 4 -290 13 -51 44 -80 95 -90 52 -10 100
4 134 37 l30 31 0 -32 c0 -38 27 -52 46 -25 11 14 14 60 14 181 0 89 -3 169
-6 178 -3 9 -17 16 -30 16 -24 0 -24 0 -24 -120 0 -131 -11 -176 -51 -204 -32
-22 -101 -21 -130 3 -23 18 -24 27 -29 168 -5 139 -6 148 -25 151 -12 2 -24 0
-28 -4z"/>
<path d="M5412 388 c3 -185 4 -193 23 -193 19 0 20 8 23 193 l2 192 -25 0 -25
0 2 -192z"/>
</g>
</svg>
